<?xml version="1.0" standalone="no"?>
<!DOCTYPE svg PUBLIC "-//W3C//DTD SVG 20010904//EN"
 "http://www.w3.org/TR/2001/REC-SVG-20010904/DTD/svg10.dtd">
<svg version="1.0" xmlns="http://www.w3.org/2000/svg"
 width="260.000000pt" height="260.000000pt" viewBox="0 0 260.000000 260.000000"
 preserveAspectRatio="xMidYMid meet">
<metadata>
Created by potrace 1.14, written by Peter Selinger 2001-2017
</metadata>
<g transform="translate(0.000000,260.000000) scale(0.100000,-0.100000)"
fill="#000000" stroke="none">
<path d="M815 2525 c1 -41 -1 -78 -4 -83 -3 -4 -150 -8 -326 -7 l-320 0 0 -80
0 -80 -75 -2 c-41 -1 -78 -2 -82 -2 -3 -1 -6 -109 -6 -241 l1 -240 78 0 c83 0
93 6 78 48 -5 13 -5 21 -1 18 4 -2 6 19 5 47 l-3 52 163 -1 164 -2 -1 79 c-1
48 2 79 9 80 5 1 42 2 80 3 l70 1 2 63 c1 34 2 70 2 80 1 17 9 19 79 17 42 -2
79 -3 82 -4 10 -2 5 -321 -5 -322 -5 0 -42 0 -82 0 l-72 0 1 -47 c0 -26 -1
-63 -1 -82 l-1 -35 -72 1 c-40 0 -77 -1 -83 -3 -6 -2 -9 -35 -7 -82 l3 -79
-80 3 c-66 1 -80 -1 -83 -14 -2 -9 -3 -120 -3 -247 l1 -230 -80 0 -81 1 0 -80
-1 -80 -79 -1 -80 -1 -2 -224 c-1 -123 0 -233 2 -244 4 -19 10 -20 162 -15
l157 5 0 155 c0 85 4 157 8 160 4 3 39 5 78 5 55 -1 71 2 74 15 2 8 3 77 2
153 -1 76 1 142 4 146 8 11 37 20 44 14 3 -4 32 -7 63 -7 l56 -1 1 -80 1 -80
80 0 80 0 0 -162 -1 -161 241 1 240 2 0 160 0 160 -80 0 -79 0 -1 80 0 80 -70
1 c-39 1 -75 2 -81 3 -7 1 -11 30 -10 79 l0 77 -81 0 -81 0 2 165 1 165 78 0
c70 0 77 2 78 20 0 11 2 47 2 80 l2 60 81 3 81 3 -2 79 c-2 80 -2 80 24 81 14
0 87 0 162 0 l137 0 4 34 c2 19 1 35 -4 35 -4 0 -5 7 -1 16 3 9 6 30 7 47 l1
31 72 1 c39 0 75 4 79 8 5 4 8 40 9 80 l0 72 80 0 80 0 0 80 0 80 -160 0 -160
0 0 -72 c0 -39 -4 -75 -8 -80 -5 -4 -79 -8 -166 -9 l-156 -1 0 161 0 161 -161
3 -160 2 1 -75z"/>
<path d="M2127 2270 c-9 -3 -13 -29 -12 -80 l0 -75 -160 -1 -160 -2 -5 -83 -5
-83 -77 2 c-56 1 -78 -2 -79 -11 0 -6 -1 -43 -2 -82 l-2 -70 -160 0 -160 0 0
-75 c0 -41 -3 -78 -8 -81 -4 -3 -41 -5 -83 -5 l-75 1 2 -78 c1 -42 -1 -80 -4
-83 -4 -4 -2 -15 4 -25 6 -11 6 -19 0 -19 -5 0 -6 -14 -1 -35 4 -19 4 -37 0
-40 -5 -3 -6 -13 -3 -23 4 -17 17 -19 148 -20 79 0 148 -3 153 -6 5 -3 14 6
20 19 7 15 8 25 2 25 -5 0 -7 7 -3 16 3 8 6 37 7 62 l1 47 80 0 80 0 -1 81 -1
80 81 0 81 0 0 82 -1 81 146 0 c80 0 150 0 155 1 26 6 30 -5 30 -84 l0 -83
-65 -1 c-36 0 -72 0 -81 -1 -14 -1 -16 -20 -16 -157 0 -107 -3 -158 -11 -163
-7 -4 -43 -6 -82 -4 l-70 4 0 -164 0 -163 -163 1 -162 0 0 -162 0 -162 55 0
c30 1 67 0 81 0 l27 -1 -1 -82 -1 -83 -80 0 -81 0 0 -80 0 -80 -160 0 -160 0
0 -27 c-1 -15 -4 -30 -8 -34 -3 -4 -2 -15 4 -25 5 -11 6 -19 2 -19 -4 0 -7
-49 -5 -110 l3 -109 242 2 241 2 0 161 -1 160 81 0 81 0 1 70 c1 38 2 75 3 82
1 8 24 12 81 12 l79 0 -1 75 c-1 41 1 78 5 81 3 3 111 6 240 5 173 0 236 3
239 12 2 7 4 79 4 161 l-1 149 -163 1 -163 0 2 83 2 83 42 -2 c23 0 47 2 53 6
7 4 12 3 12 -2 0 -5 12 -7 28 -5 l27 5 -1 243 -1 243 56 0 c118 0 108 -8 107
80 l-1 77 35 2 c19 1 56 2 82 2 l47 1 -1 160 0 160 -52 1 c-28 0 -64 2 -81 2
l-30 2 0 80 0 79 -148 1 c-81 0 -153 -2 -160 -5z"/>
</g>
</svg>
